Patient4_TMGait_0pt4_02_right_21_GRF.mot
version=1
nRows=26
nColumns=19
inDegrees=no
endheader
time	F1x	F1y	F1z	M1x	M1y	M1z	F2x	F2y	F2z	M2x	M2y	M2z	EC1x	EC1y	EC1z	EC2x	EC2y	EC2z
27.49	11.8766	734.9707	67.5324	-240.3137	-70.5898	829.1188	-8.5384	-9.2372	7.3256	-4.0373	-2.7913	-13.9597	-0.0592	0.0182	-0.0073	-0.0462	0.0165	0.9585
27.5036	5.7856	726.5647	67.1854	-236.6469	-71.6267	817.4484	-5.6268	-5.3608	4.8186	-2.3766	-1.7713	-8.3949	-0.0592	0.0182	-0.0073	-0.0462	0.0165	0.9585
27.5173	1.101	719.8207	66.636	-233.5414	-71.9924	807.2246	-3.261	-2.1034	2.6997	-0.97753	-0.88255	-3.6781	-0.0592	0.0182	-0.0073	-0.0462	0.0165	0.9585
27.5309	-1.8768	716.0881	65.9118	-231.5291	-71.6449	799.9636	-1.5472	0.37791	1.0885	0.090801	-0.18161	-0.056373	-0.0592	0.0182	-0.0073	-0.0462	0.0165	0.9585
27.5446	-3.1865	716.239	65.0351	-230.9641	-70.6347	796.6268	-0.42157	2.0984	-0.025542	0.83496	0.32275	2.4591	-0.0592	0.0182	-0.0073	-0.0462	0.0165	0.9585
27.5582	-3.0515	720.5301	64.0943	-231.9739	-69.1212	797.4886	0.21712	3.1792	-0.72215	1.3036	0.66103	4.0297	-0.0592	0.0182	-0.0073	-0.0462	0.0165	0.9585
27.5719	-1.7469	728.6358	63.1317	-234.4701	-67.2338	802.1832	0.48485	3.7514	-1.103	1.5526	0.87839	4.8576	-0.0592	0.0182	-0.0073	-0.0462	0.0165	0.9585
27.5855	0.45371	739.7497	62.2066	-238.1808	-65.1124	809.8365	0.50142	3.9198	-1.268	1.6284	1.0178	5.1068	-0.0592	0.0182	-0.0073	-0.0462	0.0165	0.9585
27.5991	3.3096	752.7456	61.3388	-242.7087	-62.8458	819.2354	0.34173	3.7896	-1.3016	1.5726	1.1192	4.9446	-0.0592	0.0182	-0.0073	-0.0462	0.0165	0.9585
27.6128	6.6054	766.3477	60.5694	-247.5882	-60.533	829.0397	0.097878	3.3928	-1.2726	1.4019	1.2091	4.4241	-0.0592	0.0182	-0.0073	-0.0462	0.0165	0.9585
27.6264	10.1565	779.2615	59.9187	-252.3354	-58.2454	837.9301	-0.19581	2.7385	-1.221	1.1202	1.3071	3.577	-0.0592	0.0182	-0.0073	-0.0462	0.0165	0.9585
27.6401	13.8207	790.2317	59.4062	-256.4699	-56.0458	844.6696	-0.49175	1.8048	-1.1737	0.71826	1.4151	2.3825	-0.0592	0.0182	-0.0073	-0.0462	0.0165	0.9585
27.6537	17.4614	798.0673	59.0337	-259.5329	-53.9758	848.1174	-0.72449	0.56729	-1.1404	0.18686	1.5098	0.8181	-0.0592	0.0182	-0.0073	-0.0462	0.0165	0.9585
27.6674	20.9791	801.7485	58.8088	-261.1296	-52.0824	847.3217	-0.84754	-0.96301	-1.1119	-0.46942	1.5512	-1.0819	-0.0592	0.0182	-0.0073	-0.0462	0.0165	0.9585
27.681	24.2753	800.5955	58.7258	-260.9906	-50.4065	841.7012	-0.76342	-2.709	-1.0564	-1.2158	1.4586	-3.2251	-0.0592	0.0182	-0.0073	-0.0462	0.0165	0.9585
27.6946	27.2962	794.468	58.8075	-259.0378	-49.0051	831.2293	-0.36272	-4.4259	-0.92748	-1.9517	1.1299	-5.3081	-0.0592	0.0182	-0.0073	-0.0462	0.0165	0.9585
27.7083	30.0047	783.9603	59.0796	-255.4495	-47.9311	816.6088	0.49539	-5.6826	-0.65721	-2.4929	0.43124	-6.8082	-0.0592	0.0182	-0.0073	-0.0462	0.0165	0.9585
27.7219	32.3634	770.3661	59.6027	-250.6472	-47.2714	799.2452	1.9527	-5.7881	-0.15963	-2.5458	-0.78986	-6.8849	-0.0592	0.0182	-0.0073	-0.0462	0.0165	0.9585
27.7356	34.3655	755.3688	60.4227	-245.1958	-47.0861	780.895	4.1234	-3.7151	0.65275	-1.6803	-2.6775	-4.2747	-0.0592	0.0182	-0.0073	-0.0462	0.0165	0.9585
27.7492	36.0033	740.6404	61.5547	-239.6726	-47.391	763.2774	7.0679	1.852	1.8472	0.65921	-5.3254	2.6356	-0.0592	0.0182	-0.0073	-0.0462	0.0165	0.9585
27.7629	37.3027	727.3924	62.926	-234.5168	-48.1004	747.6219	10.6588	12.4537	3.4486	5.1224	-8.6955	15.7501	-0.0592	0.0182	-0.0073	-0.0462	0.0165	0.9585
27.7765	38.2945	715.9954	64.3923	-229.8968	-49.0516	734.2758	14.5284	29.6307	5.3853	12.3615	-12.5243	36.954	-0.0592	0.0182	-0.0073	-0.0462	0.0165	0.9585
27.7901	39.0098	705.8947	65.7199	-225.6774	-49.9977	722.6313	17.915	54.5376	7.4323	22.8652	-16.1984	67.6445	-0.0592	0.0182	-0.0073	-0.0462	0.0165	0.9585
27.8038	39.4652	695.7437	66.6257	-221.4663	-50.651	711.2745	19.5433	87.3287	9.1461	36.7017	-18.6369	107.9863	-0.0592	0.0182	-0.0073	-0.0462	0.0165	0.9585
27.8174	39.6305	683.7518	66.8285	-216.7235	-50.7469	698.3573	18.186	126.8075	9.909	53.3438	-18.5778	156.532	-0.0592	0.0182	-0.0073	-0.0462	0.0165	0.9585
27.8311	39.4713	668.1355	66.0764	-210.9148	-50.0559	682.0214	13.4201	170.1051	9.1394	71.539	-15.1849	209.8214	-0.0592	0.0182	-0.0073	-0.0462	0.0165	0.9585
